<?xml version="1.0" standalone="no"?>
<!DOCTYPE svg PUBLIC "-//W3C//DTD SVG 20010904//EN"
 "http://www.w3.org/TR/2001/REC-SVG-20010904/DTD/svg10.dtd">
<svg version="1.0" xmlns="http://www.w3.org/2000/svg"
 width="512.000000pt" height="512.000000pt" viewBox="0 0 512.000000 512.000000"
 preserveAspectRatio="xMidYMid meet">

<g transform="translate(0.000000,512.000000) scale(0.100000,-0.100000)"
fill="#000000" stroke="none">
<path d="M1077 4178 c333 -340 1573 -1614 1573 -1618 0 -4 -1240 -1278 -1573
-1618 l-71 -72 824 0 825 1 820 840 c451 463 820 845 820 849 0 4 -369 386
-820 849 l-820 840 -825 1 -824 0 71 -72z"/>
<path d="M1140 2885 l-325 -325 325 -325 325 -325 325 325 325 325 -325 325
-325 325 -325 -325z"/>
</g>
</svg>

<svg xmlns="http://www.w3.org/2000/svg" viewBox="0 0 256 256" fill="#10b981">

</svg>